<svg width="85" height="86" viewBox="0 0 85 86" fill="none" xmlns="http://www.w3.org/2000/svg">
<rect x="0.5" y="0.5" width="84" height="85" rx="42" stroke="white"/>
<path d="M42.5 71.919C58.2401 71.919 71 59.1773 71 43.4595C71 27.7418 58.2401 15 42.5 15C26.7599 15 14 27.7418 14 43.4595C14 59.1773 26.7599 71.919 42.5 71.919Z" fill="white"/>
<path d="M60.033 41.5496L59.9495 41.0983L60.033 41.5496C60.1939 41.5199 60.3592 41.524 60.5183 41.5617C60.8412 41.6447 61.1236 41.8425 61.3124 42.1191C61.4987 42.3917 61.5814 42.7224 61.5457 43.051C60.6501 47.4271 58.295 51.3665 54.8686 54.2194C51.4371 57.0766 47.1366 58.6732 42.6783 58.7457C38.2199 58.8182 33.8702 57.3622 30.3483 54.6181C26.8279 51.8752 24.3453 48.0093 23.3108 43.6591C23.2446 43.3428 23.3037 43.0131 23.4754 42.7399C23.6479 42.4653 23.9202 42.2697 24.234 42.1942L24.248 42.1909L24.2617 42.1866C24.4221 42.1373 24.5911 42.1223 24.7577 42.1427C24.9244 42.1631 25.0848 42.2184 25.2287 42.3051C25.3727 42.3918 25.4971 42.5081 25.5935 42.6463L25.9699 42.3836L25.5935 42.6463C25.69 42.7845 25.7565 42.9416 25.7886 43.1075L25.7907 43.1184L25.7934 43.1292C26.714 46.897 28.8829 50.2396 31.9452 52.6095C35.0074 54.9793 38.7814 56.2357 42.6488 56.1726C46.5162 56.1095 50.2474 54.7305 53.2312 52.262C56.2149 49.7935 58.2743 46.3818 59.0723 42.5861L59.0757 42.5701L59.0779 42.5539C59.1004 42.3896 59.1568 42.232 59.2435 42.0914C59.3302 41.9507 59.4453 41.8298 59.5814 41.7365C59.7175 41.6432 59.8713 41.5796 60.033 41.5496Z" fill="#141414" stroke="#141414" stroke-width="0.918049"/>
<path d="M33.0092 33.2191C32.4637 32.6866 32.1412 31.9612 32.1099 31.1932C32.1412 30.4252 32.4637 29.6997 33.0092 29.1673C33.5583 28.6312 34.2904 28.3326 35.0511 28.3326C35.8119 28.3326 36.544 28.6312 37.0931 29.1673C37.6385 29.6997 37.961 30.4252 37.9923 31.1932C37.961 31.9612 37.6385 32.6867 37.0931 33.2191C36.544 33.7551 35.8119 34.0538 35.0511 34.0538C34.2904 34.0538 33.5583 33.7551 33.0092 33.2191Z" fill="#141414" stroke="#141414" stroke-width="0.918049"/>
<path d="M49.4128 28.333L49.4206 28.3332L49.4284 28.333C49.8135 28.3265 50.1962 28.3958 50.5544 28.537C50.9127 28.6782 51.2393 28.8884 51.5157 29.1556L51.8223 28.8384L51.5157 29.1556C51.7922 29.4228 52.0131 29.7417 52.1656 30.0939C52.3166 30.4426 52.3977 30.8174 52.4046 31.1971C52.3742 31.9625 52.0486 32.687 51.4953 33.2194C50.9391 33.7545 50.1961 34.0538 49.4227 34.0538C48.6494 34.0538 47.9064 33.7545 47.3502 33.2194C46.7968 32.6869 46.4712 31.9623 46.4408 31.1968C46.4472 30.8173 46.528 30.4426 46.6786 30.0939C46.8307 29.7417 47.0511 29.4228 47.3271 29.1556C47.6032 28.8884 47.9296 28.6782 48.2875 28.537C48.6454 28.3958 49.0278 28.3265 49.4128 28.333Z" fill="#141414" stroke="#141414" stroke-width="0.918049"/>
</svg>
